<!DOCTYPE svg PUBLIC "-//W3C//DTD SVG 20010904//EN" "http://www.w3.org/TR/2001/REC-SVG-20010904/DTD/svg10.dtd">
<svg version="1.0" xmlns="http://www.w3.org/2000/svg" width="1024px" height="1024px" viewBox="0 0 10240 10240" preserveAspectRatio="xMidYMid meet">
<g id="layer101" fill="#348bdb" fill-rule="evenodd">
<path d="M4830 10230 L4827 10229C4826 10229,4766 10224,4695 10220 C4623 10215,4524 10206,4475 10200 C4425 10193,4324 10177,4250 10164 C4175 10150,4061 10127,3995 10113 C3929 10099,3814 10070,3740 10049 C3665 10028,3537 9988,3455 9959 C3372 9931,3240 9881,3162 9849 C3083 9816,2943 9751,2850 9705 C2758 9659,2622 9586,2549 9544 C2476 9502,2355 9427,2280 9377 C2206 9327,2100 9252,2045 9211 C1990 9169,1891 9090,1825 9035 C1759 8980,1616 8847,1509 8740 C1401 8632,1264 8486,1205 8415 C1146 8343,1060 8234,1013 8172 C967 8111,887 7996,836 7917 C784 7839,702 7705,654 7620 C606 7534,539 7409,507 7340 C474 7272,419 7148,385 7064 C350 6981,296 6836,265 6743 C234 6650,186 6489,160 6385 C133 6280,100 6129,85 6050 C71 5970,53 5855,45 5795 C37 5734,28 5654,25 5617 L20 5550L20 5550 L20 5542C20 5538,18 5522,15 5507 L10 5480L10 5480 L10 5475C10 5472,10 5454,10 5435 L10 5400L10 5400 L10 5355C10 5330,10 5307,10 5303 C10 5299,7 5295,5 5293 L0 5290L0 5290 L0 5125C0 5034,0 4957,0 4955 C0 4952,0 4943,0 4935 L0 4920L0 4920 L5 4877C8 4854,10 4831,10 4827 L10 4820L10 4820 L10 4817C10 4816,14 4756,19 4685 C24 4613,35 4503,44 4440 C52 4376,71 4262,85 4185 C99 4108,128 3975,149 3890 C171 3804,205 3681,225 3615 C245 3549,284 3434,311 3360 C339 3285,389 3162,421 3085 C454 3008,516 2877,559 2794 C602 2711,668 2592,705 2529 C742 2466,813 2354,862 2280 C912 2205,995 2088,1047 2020 C1100 1951,1181 1850,1228 1795 C1274 1740,1405 1602,1519 1490 C1632 1377,1783 1237,1855 1178 C1926 1120,2021 1046,2065 1013 C2109 980,2192 921,2250 883 C2307 844,2414 776,2487 731 C2560 686,2684 616,2762 575 C2841 534,2956 477,3020 449 C3083 421,3216 367,3315 330 C3414 292,3540 248,3595 231 C3650 214,3744 187,3805 171 C3865 155,3955 132,4005 121 C4054 109,4176 87,4275 70 C4374 54,4524 34,4610 26 C4695 18,4885 8,5032 5 L5300 0L5300 0 L5307 5C5311 7,5318 10,5322 10 C5326 10,5350 10,5375 10 L5420 10L5420 10 L5507 15C5555 18,5667 30,5755 41 C5843 52,5984 74,6070 91 C6155 107,6286 136,6361 155 C6436 174,6551 205,6616 225 C6681 245,6811 290,6905 324 C6998 359,7122 409,7180 435 C7237 460,7354 517,7440 560 C7525 603,7666 682,7753 734 C7841 787,7977 875,8055 931 C8134 986,8255 1078,8326 1136 C8397 1193,8526 1306,8612 1386 C8699 1467,8819 1587,8879 1653 C8939 1720,9018 1811,9055 1855 C9091 1899,9161 1987,9210 2051 C9258 2116,9337 2227,9384 2298 C9431 2370,9502 2481,9541 2546 C9579 2611,9655 2755,9710 2865 C9764 2975,9837 3139,9873 3230 C9908 3320,9960 3465,9988 3551 C10016 3637,10059 3790,10084 3891 C10109 3992,10140 4135,10154 4210 C10167 4284,10185 4401,10194 4470 C10202 4538,10211 4615,10214 4640 C10217 4664,10222 4781,10225 4900 C10228 5018,10231 5118,10230 5122 L10230 5130L10230 5130 L10230 5185C10230 5215,10230 5242,10230 5245 C10230 5247,10230 5270,10230 5295 L10230 5340L10230 5340 L10230 5385L10230 5430L10230 5430 L10225 5470L10220 5510L10220 5510 L10219 5532C10219 5544,10213 5615,10204 5690 C10196 5764,10180 5881,10169 5950 C10157 6018,10135 6138,10118 6215 C10101 6292,10063 6438,10034 6541 C10004 6643,9954 6799,9921 6886 C9888 6973,9836 7103,9805 7175 C9774 7246,9710 7378,9664 7468 C9617 7558,9545 7688,9503 7758 C9461 7828,9401 7923,9369 7970 C9338 8016,9272 8109,9222 8175 C9173 8241,9086 8352,9029 8420 C8972 8488,8842 8628,8740 8730 C8638 8832,8496 8964,8425 9023 C8353 9083,8242 9171,8178 9220 C8115 9269,7998 9351,7918 9402 C7839 9454,7745 9513,7710 9534 C7674 9555,7577 9608,7495 9652 C7413 9695,7296 9753,7235 9781 C7174 9809,7070 9853,7003 9880 C6936 9907,6812 9951,6728 9979 C6644 10006,6516 10045,6445 10064 C6374 10084,6264 10110,6200 10124 C6137 10137,6015 10159,5930 10173 C5844 10187,5748 10201,5715 10204 C5682 10207,5634 10212,5610 10215 C5585 10218,5561 10220,5557 10220 L5550 10220L5550 10220 L5542 10219C5538 10219,5520 10221,5502 10224 L5470 10230L5470 10230 L5435 10230L5400 10230L5400 10230 L5392 10229C5388 10229,5354 10231,5317 10234 L5250 10240L5250 10240 L5170 10240C5126 10240,5087 10240,5085 10240 C5082 10240,5055 10240,5025 10240 L4970 10240L4970 10240 L4907 10234C4873 10231,4841 10229,4837 10229 L4830 10230M4570 6610 L4572 6611C4573 6611,4593 6619,4615 6627 C4642 6638,4691 6643,4770 6644 C4864 6644,4898 6640,4959 6621 C5000 6608,5060 6585,5092 6569 L5150 6540L5150 6540 L5171 6527C5183 6520,5215 6497,5243 6475 C5271 6454,5317 6416,5344 6390 C5372 6365,5423 6313,5458 6275 C5493 6236,5556 6152,5599 6088 L5676 5971 5698 6016 C5710 6040,5720 6062,5720 6065 L5720 6070L5720 6070 L5745 6120L5770 6170L5770 6170 L5771 6172C5771 6173,5781 6192,5792 6214 C5807 6244,5809 6258,5801 6269 C5795 6278,5781 6301,5770 6322 C5758 6343,5750 6377,5750 6402 C5750 6425,5759 6463,5770 6485 C5780 6507,5794 6531,5800 6540 C5810 6552,5757 6660,5528 7099 L5245 7643 5202 7657 C5179 7665,5149 7685,5135 7701 C5121 7718,5107 7742,5103 7755 C5100 7769,5100 7796,5104 7816 C5108 7836,5124 7865,5139 7881 C5155 7896,5188 7915,5214 7921 C5259 7934,5270 7946,5980 8816 C6657 9647,6699 9700,6689 9725 C6684 9739,6680 9761,6680 9773 C6680 9786,6690 9817,6703 9843 L6727 9890 6601 9929 C6531 9951,6421 9982,6355 9998 C6289 10015,6181 10039,6115 10053 C6049 10067,5950 10085,5895 10094 C5840 10103,5701 10119,5585 10130 C5445 10143,5297 10149,5135 10149 C5003 10149,4832 10145,4755 10139 C4678 10134,4531 10118,4430 10104 C4328 10090,4181 10065,4103 10049 C4025 10033,3908 10006,3843 9989 C3778 9972,3632 9927,3519 9889 C3405 9852,3243 9791,3159 9754 C3074 9717,2943 9656,2869 9619 C2794 9582,2672 9516,2599 9474 C2525 9431,2411 9360,2345 9316 C2279 9272,2175 9199,2114 9153 C2053 9108,1945 9022,1874 8963 C1803 8904,1668 8779,1574 8685 C1480 8591,1360 8463,1305 8400 C1251 8336,1160 8222,1101 8145 C1043 8068,959 7948,914 7879 C869 7811,800 7698,760 7629 C719 7561,647 7424,598 7325 C549 7226,478 7066,440 6970 C402 6873,351 6729,325 6650 C299 6570,261 6435,240 6350 C219 6264,192 6147,181 6090 C169 6032,153 5940,145 5885 C136 5830,122 5724,114 5650 C105 5575,96 5383,92 5219 C89 5029,91 4864,99 4759 C105 4668,117 4546,125 4487 C133 4428,148 4325,160 4257 C171 4190,196 4067,215 3986 C234 3904,270 3769,294 3686 C319 3602,363 3469,393 3389 C422 3310,466 3200,489 3145 C513 3090,569 2969,615 2877 C661 2784,734 2649,776 2577 C818 2504,884 2397,923 2340 C961 2282,1036 2176,1090 2105 C1144 2033,1225 1930,1270 1875 C1316 1821,1419 1709,1499 1626 C1579 1544,1712 1416,1794 1343 C1877 1269,1948 1209,1952 1209 C1956 1209,1960 1216,1960 1224 C1960 1233,1975 1257,1995 1278 C2018 1305,2044 1321,2073 1328 C2102 1335,2128 1336,2150 1329 C2175 1322,2187 1323,2199 1333 C2207 1341,2498 1583,2845 1871 C3192 2159,3675 2559,3917 2760 C4329 3100,4358 3126,4353 3152 C4350 3167,4356 3197,4368 3223 C4383 3257,4397 3271,4432 3288 C4457 3301,4480 3316,4483 3322 C4485 3329,4571 3538,4672 3786 C4851 4223,4857 4239,4847 4277 C4838 4311,4839 4322,4856 4351 C4867 4369,4890 4394,4907 4405 C4928 4418,4939 4433,4939 4449 C4939 4463,4905 4542,4863 4624 C4820 4707,4753 4849,4714 4940 L4641 5105 4540 5101 L4439 5098 4442 5161 L4445 5224 4508 5241 C4543 5251,4574 5260,4576 5262 C4578 5265,4555 5342,4524 5435 C4493 5528,4453 5663,4435 5735 C4416 5806,4393 5903,4383 5950 C4370 6011,4365 6080,4365 6200 C4365 6350,4367 6370,4389 6424 C4405 6464,4430 6502,4466 6537 C4495 6566,4529 6594,4541 6599 C4554 6604,4566 6609,4567 6609 L4570 6610M2510 3900 L2512 3899C2513 3899,2524 3865,2536 3823 L2557 3746 2370 3753 C2267 3757,2111 3769,2024 3779 C1936 3790,1841 3802,1812 3805 C1783 3809,1760 3814,1760 3816 L1760 3820L1750 3820 L1741 3820C1737 3820,1706 3824,1674 3830 C1641 3835,1604 3842,1592 3845 C1571 3850,1570 3847,1576 3822 C1579 3807,1596 3768,1613 3736 C1629 3704,1664 3659,1690 3636 C1715 3613,1766 3580,1802 3562 C1837 3545,1904 3521,1950 3509 C1996 3498,2084 3481,2144 3473 C2216 3464,2344 3459,2510 3459 C2650 3459,2837 3463,2925 3469 C3013 3475,3136 3484,3200 3490 C3263 3496,3398 3509,3500 3521 C3601 3532,3688 3545,3693 3549 C3697 3553,3682 3573,3660 3593 L3620 3630L3610 3630 L3562 3659C3536 3675,3487 3697,3453 3709 C3420 3720,3343 3733,3283 3739 C3223 3745,3084 3749,2973 3749 L2772 3750 2765 3782 C2762 3800,2725 4001,2684 4230 C2643 4458,2584 4780,2553 4945 C2523 5110,2480 5332,2458 5440 C2437 5547,2402 5698,2383 5775 C2363 5852,2329 5966,2307 6029 C2286 6093,2250 6181,2229 6227 C2207 6272,2167 6338,2140 6374 L2091 6439 2123 6444 C2140 6446,2184 6451,2220 6454 C2255 6457,2288 6460,2292 6460 L2300 6460L2310 6460 L2342 6464C2360 6467,2440 6476,2520 6484 C2599 6493,2743 6504,2839 6510 C2936 6516,3016 6523,3018 6525 C3020 6527,2992 6550,2956 6576 C2919 6603,2890 6625,2890 6627 L2890 6630L2880 6630 L2827 6660C2798 6676,2739 6701,2695 6716 C2625 6739,2594 6743,2455 6746 C2367 6748,2124 6754,1915 6760 C1693 6766,1491 6776,1430 6784 C1372 6792,1314 6799,1302 6799 L1280 6800L1270 6800 L1270 6803C1270 6804,1237 6810,1197 6816 C1157 6822,1123 6825,1122 6824 C1120 6823,1125 6792,1134 6755 C1142 6719,1158 6672,1169 6651 C1180 6630,1212 6591,1240 6566 C1279 6531,1310 6514,1368 6495 C1411 6482,1474 6466,1510 6459 C1545 6452,1635 6444,1708 6440 L1842 6435 1881 6340 C1903 6287,1943 6179,1969 6100 C1996 6020,2041 5869,2068 5765 C2096 5660,2147 5460,2180 5320 C2213 5179,2290 4846,2350 4580 C2411 4313,2471 4053,2485 4002 L2510 3910M5850 6010 L5845 6010C5842 6010,5833 5996,5825 5980 C5816 5964,5810 5946,5810 5940 L5810 5930L5810 5930 L5804 5930C5801 5930,5787 5905,5774 5874 C5755 5830,5752 5814,5760 5798 C5768 5784,5768 5774,5759 5764 C5753 5757,5739 5747,5728 5744 C5714 5739,5682 5684,5624 5564 L5540 5390L5540 5390 L5539 5387C5539 5386,5525 5358,5508 5326 C5492 5294,5481 5265,5483 5262 C5486 5259,5543 5252,5609 5246 C5715 5237,5730 5233,5730 5218 L5730 5200L5730 5200 L5730 5195C5730 5192,5730 5169,5730 5143 L5730 5097 5632 5104 C5578 5107,5507 5113,5472 5116 L5410 5122 5355 5006 L5300 4890L5300 4890 L5297 4889C5296 4889,5275 4847,5252 4797 C5228 4746,5209 4701,5209 4696 C5209 4692,5238 4640,5273 4581 C5308 4523,5364 4424,5398 4362 C5433 4300,5472 4220,5485 4184 C5499 4148,5510 4115,5510 4109 L5510 4100L5510 4100 L5510 4087C5510 4080,5507 4064,5504 4050 C5501 4037,5485 4014,5468 3998 C5445 3977,5428 3970,5397 3970 C5375 3969,5341 3977,5321 3987 C5301 3996,5260 4029,5229 4060 C5198 4091,5151 4146,5125 4183 L5077 4250 5053 4224 C5040 4210,5017 4194,5002 4189 C4977 4180,4958 4138,4787 3717 L4599 3255 4614 3212 C4622 3189,4627 3162,4623 3152 C4620 3143,4613 3122,4607 3107 C4602 3092,4583 3071,4565 3060 C4547 3049,4516 3039,4496 3039 C4463 3039,4369 2964,3367 2132 L2275 1224 2268 1168 C2265 1134,2254 1099,2240 1081 C2228 1064,2211 1045,2201 1040 C2191 1034,2188 1027,2195 1022 C2200 1018,2270 971,2350 918 C2429 865,2546 793,2610 757 C2673 721,2788 660,2865 622 C2942 583,3074 522,3160 485 C3245 448,3407 387,3520 349 C3632 312,3778 267,3843 250 C3908 233,4025 206,4103 190 C4181 174,4328 149,4430 136 C4531 122,4678 106,4755 100 C4832 94,4988 89,5102 89 C5215 89,5377 94,5461 100 C5546 106,5669 117,5735 125 C5801 134,5909 149,5975 160 C6041 171,6144 192,6205 206 C6265 220,6387 251,6475 275 C6563 299,6691 339,6760 363 C6828 388,6925 424,6975 443 C7024 462,7116 501,7180 529 C7243 558,7360 615,7439 657 C7519 698,7627 757,7679 787 C7732 817,7838 885,7915 937 C7992 990,8095 1063,8145 1100 C8194 1137,8284 1209,8345 1259 C8405 1310,8499 1392,8553 1442 C8608 1492,8715 1601,8792 1684 C8869 1766,8967 1877,9009 1929 C9052 1982,9125 2076,9172 2140 C9218 2203,9295 2313,9342 2385 C9389 2456,9457 2569,9495 2635 C9532 2701,9602 2836,9650 2935 C9698 3034,9767 3189,9803 3280 C9838 3370,9889 3510,9914 3590 C9940 3669,9979 3807,10000 3895 C10022 3983,10051 4114,10065 4187 C10078 4259,10098 4388,10109 4472 C10120 4556,10133 4691,10139 4771 C10145 4852,10149 5012,10149 5126 C10149 5241,10145 5398,10139 5475 C10134 5552,10120 5684,10109 5769 C10098 5854,10077 5982,10063 6054 C10049 6126,10027 6232,10014 6290 C10000 6347,9966 6471,9938 6565 C9910 6658,9857 6813,9820 6910 C9783 7006,9724 7145,9689 7220 C9655 7294,9595 7413,9557 7485 C9519 7556,9464 7653,9437 7700 C9409 7746,9350 7838,9307 7904 C9263 7970,9187 8076,9139 8139 C9091 8203,9014 8299,8968 8354 C8922 8409,8839 8502,8784 8559 C8729 8617,8639 8708,8584 8760 C8529 8813,8442 8893,8390 8938 C8338 8983,8235 9067,8160 9123 C8086 9180,7971 9262,7905 9306 C7839 9350,7723 9423,7648 9467 C7573 9512,7460 9574,7398 9606 C7336 9637,7222 9691,7145 9725 C7037 9773,7004 9784,7001 9773 C6999 9765,6999 9757,7001 9755 C7003 9754,7315 9519,7695 9234 L8385 8715 8455 8718 C8510 8720,8531 8716,8557 8700 C8575 8689,8599 8665,8610 8647 C8622 8626,8629 8597,8629 8565 C8629 8532,8622 8503,8610 8482 C8599 8464,8575 8440,8557 8429 C8538 8418,8507 8410,8483 8410 C8460 8410,8429 8414,8415 8419 C8391 8428,8370 8412,8112 8197 C7959 8069,7445 7638,6970 7240 C6494 6842,6103 6515,6102 6514 C6100 6513,6106 6496,6114 6476 C6123 6456,6130 6424,6130 6405 C6130 6385,6123 6352,6114 6332 C6105 6311,6087 6282,6073 6268 C6059 6253,6035 6236,6021 6231 C6006 6226,5982 6218,5967 6215 C5944 6210,5932 6193,5895 6120 C5870 6070,5850 6025,5850 6020 L5850 6010M7000 6640 L6993 6640C6990 6640,6966 6621,6941 6598 C6915 6575,6871 6529,6842 6495 C6813 6462,6777 6408,6761 6375 C6744 6342,6724 6288,6715 6255 C6706 6222,6696 6152,6693 6100 C6689 6032,6692 5980,6703 5922 C6711 5877,6732 5812,6748 5777 C6765 5743,6798 5695,6821 5671 C6844 5647,6883 5614,6907 5598 C6931 5582,6975 5557,7006 5543 C7037 5530,7099 5510,7143 5499 C7188 5488,7249 5480,7279 5480 L7333 5480 7303 5512 C7287 5530,7259 5564,7241 5587 L7210 5630L7215 5645 L7200 5640 L7200 5650 L7195 5650C7192 5650,7170 5691,7145 5742 C7121 5793,7093 5864,7084 5900 C7074 5936,7067 6004,7066 6055 C7066 6113,7072 6166,7083 6205 C7093 6238,7115 6287,7131 6315 C7148 6342,7184 6388,7213 6417 C7241 6446,7265 6470,7267 6470 L7270 6470L7280 6470 L7280 6474C7280 6477,7303 6493,7332 6509 C7361 6526,7421 6552,7465 6567 C7539 6592,7556 6593,7720 6594 C7852 6594,7911 6589,7963 6576 C8001 6567,8066 6546,8107 6529 C8149 6512,8213 6478,8251 6454 C8288 6429,8338 6387,8361 6361 C8385 6334,8417 6289,8433 6260 C8449 6231,8468 6184,8476 6156 C8483 6128,8489 6075,8489 6039 C8489 6003,8483 5947,8474 5914 C8466 5882,8446 5835,8432 5809 C8417 5784,8394 5749,8382 5732 L8360 5700L8350 5700 L8350 5695C8350 5692,8348 5690,8346 5690 C8344 5690,8340 5687,8336 5685 L8330 5680L8330 5670 L8315 5675 L8320 5660 L8310 5660 L8295 5645L8280 5630L8280 5620 L8270 5620 L8230 5590L8190 5560L8190 5550 L8180 5550 L8177 5546C8176 5543,8134 5516,8085 5486 C8036 5455,7992 5430,7988 5430 L7980 5430L7980 5420 L7970 5420 L7967 5416C7966 5414,7931 5394,7890 5372 C7848 5350,7780 5314,7737 5291 L7660 5250L7660 5240 L7650 5240 L7632 5228C7622 5222,7592 5203,7565 5187 C7537 5170,7500 5148,7482 5138 L7450 5120L7450 5110 L7442 5110C7438 5110,7394 5068,7345 5017 C7295 4965,7240 4899,7222 4868 C7204 4838,7179 4786,7167 4754 C7148 4703,7145 4675,7145 4560 C7146 4443,7150 4412,7172 4339 C7187 4292,7214 4220,7233 4179 C7251 4138,7294 4063,7327 4013 C7361 3962,7420 3887,7460 3846 C7499 3804,7564 3745,7603 3715 C7642 3685,7712 3638,7757 3611 C7802 3584,7879 3547,7927 3530 C7975 3512,8055 3489,8105 3477 C8173 3462,8230 3457,8340 3456 C8443 3456,8504 3461,8553 3473 C8591 3482,8649 3504,8682 3521 C8714 3539,8759 3573,8780 3598 C8802 3622,8820 3646,8820 3651 L8820 3660L8830 3660 L8830 3662C8831 3663,8837 3682,8845 3704 C8853 3726,8865 3774,8870 3811 C8878 3858,8877 3907,8869 3980 C8863 4036,8847 4124,8834 4176 C8821 4227,8793 4311,8774 4362 C8754 4413,8709 4513,8674 4585 C8639 4656,8595 4740,8574 4772 C8544 4819,8535 4828,8521 4820 C8512 4814,8503 4810,8502 4810 L8500 4810L8490 4810 L8487 4809C8486 4809,8471 4801,8455 4791 C8438 4781,8417 4764,8407 4753 C8398 4742,8383 4717,8375 4697 C8366 4677,8360 4636,8360 4607 C8360 4578,8368 4519,8379 4475 C8389 4431,8425 4325,8458 4240 C8490 4154,8533 4035,8552 3975 C8571 3914,8590 3839,8594 3807 C8598 3775,8598 3750,8595 3750 L8590 3750L8590 3740 L8590 3722C8590 3712,8581 3693,8571 3680 C8561 3666,8538 3646,8521 3636 C8499 3623,8461 3616,8407 3612 C8354 3609,8291 3613,8233 3623 C8183 3632,8106 3654,8061 3673 C8017 3692,7950 3728,7914 3754 C7877 3780,7824 3820,7797 3843 C7770 3866,7714 3925,7674 3974 C7633 4023,7580 4102,7555 4149 C7531 4196,7502 4262,7491 4295 C7480 4328,7468 4389,7464 4431 C7459 4488,7461 4520,7474 4565 C7484 4598,7502 4643,7515 4665 C7528 4687,7559 4727,7584 4752 C7609 4778,7631 4800,7634 4800 L7640 4800L7640 4810 L7712 4859C7752 4886,7881 4962,8000 5027 C8118 5093,8251 5168,8295 5195 C8339 5222,8406 5267,8445 5295 C8483 5324,8529 5360,8546 5376 C8564 5392,8599 5428,8624 5457 C8649 5486,8670 5512,8670 5515 L8670 5520L8680 5520 L8680 5526C8680 5529,8693 5554,8710 5581 C8726 5608,8740 5636,8740 5643 C8740 5650,8742 5659,8745 5663 L8750 5670L8750 5680 L8760 5680 L8764 5702C8766 5714,8773 5753,8780 5787 C8788 5826,8790 5896,8787 5967 C8783 6063,8777 6100,8752 6172 C8735 6220,8707 6285,8688 6317 C8670 6348,8614 6415,8565 6466 C8515 6516,8443 6577,8405 6602 C8366 6627,8306 6661,8272 6679 C8237 6696,8178 6721,8142 6734 C8105 6748,8027 6770,7970 6785 C7885 6806,7832 6812,7700 6816 C7576 6820,7510 6818,7439 6806 C7387 6797,7303 6778,7254 6763 C7205 6747,7130 6716,7087 6692 C7044 6669,7007 6650,7004 6650 L7000 6650M6913 9628 C6903 9622,6873 9614,6844 9610 L6792 9605 6077 8726 C5380 7870,5362 7847,5370 7817 C5376 7797,5375 7771,5369 7748 C5359 7711,5364 7701,5630 7187 C5780 6900,5913 6648,5926 6627 C5940 6605,5958 6590,5969 6590 C5986 6590,6606 7103,7580 7923 C7698 8023,7913 8203,8058 8324 C8304 8530,8320 8546,8317 8574 C8315 8602,8250 8653,7642 9112 C7272 9391,6961 9624,6950 9630 C6936 9636,6924 9636,6913 9628 M4830 6430 L4827 6429C4826 6429,4811 6423,4794 6415 C4777 6408,4751 6388,4737 6370 C4722 6353,4704 6320,4697 6297 C4689 6271,4685 6199,4685 6110 C4685 5997,4690 5940,4708 5856 C4721 5796,4749 5691,4771 5621 C4794 5551,4829 5449,4851 5393 L4890 5292 4997 5286 C5056 5283,5156 5277,5220 5274 L5335 5268 5363 5326 C5378 5358,5390 5388,5390 5392 L5390 5400L5390 5400 L5396 5404C5399 5407,5453 5515,5516 5645 C5625 5872,5629 5882,5615 5908 C5607 5924,5573 5974,5539 6020 C5505 6067,5436 6145,5386 6195 C5330 6250,5261 6306,5210 6338 C5163 6367,5094 6400,5056 6411 C5016 6423,4956 6433,4916 6433 C4877 6434,4841 6433,4837 6432 L4830 6430M5230 5050 L5230 5052C5231 5053,5238 5069,5245 5087 L5260 5120 5220 5120 C5198 5120,5177 5120,5175 5120 L5170 5120L5170 5120 L5162 5119C5158 5119,5112 5122,5061 5126 L4968 5133 4995 5079 C5010 5049,5045 4982,5072 4931 L5123 4837 5176 4941 C5205 4998,5229 5046,5229 5047 L5230 5050" />
</g>
<g id="layer102" fill="#abcff1" fill-rule="evenodd">
<path d="M4830 10230 L4837 10229C4841 10229,4873 10231,4907 10234 L4970 10240L4970 10240 L4900 10235L4830 10230" />
<path d="M5400 10230 L5352 10235C5326 10238,5301 10240,5297 10240 C5293 10240,5281 10240,5270 10240 L5250 10240L5250 10240 L5317 10234C5354 10231,5388 10229,5392 10229 L5400 10230" />
<path d="M5550 10220 L5510 10225L5470 10230L5470 10230 L5502 10224C5520 10221,5538 10219,5542 10219 L5550 10220" />
<path d="M1255 6922 C1259 6901,1266 6869,1272 6850 C1279 6830,1283 6812,1282 6809 C1281 6805,1342 6795,1418 6786 C1543 6770,1667 6765,2450 6746 C2630 6742,2693 6728,2814 6667 C2870 6639,2880 6637,2974 6639 C3029 6640,3092 6644,3113 6648 L3152 6655 3092 6702 C3015 6763,2904 6822,2815 6850 C2757 6868,2714 6873,2575 6876 C1708 6897,1675 6899,1482 6924 C1376 6938,1281 6952,1270 6955 C1251 6959,1250 6956,1255 6922 " />
<path d="M7602 6944 C7383 6902,7274 6864,7150 6783 C7074 6734,6992 6663,7001 6655 C7004 6651,7043 6668,7086 6692 C7179 6743,7306 6784,7439 6806 C7583 6829,7830 6820,7970 6785 C8235 6719,8406 6627,8565 6466 C8668 6360,8709 6295,8752 6172 C8792 6056,8801 5896,8775 5760 C8765 5710,8753 5667,8748 5664 C8743 5661,8740 5652,8740 5644 C8740 5636,8725 5607,8708 5579 C8637 5463,8725 5539,8809 5665 C8886 5782,8920 5899,8920 6050 C8920 6474,8593 6807,8067 6919 C7970 6939,7664 6956,7602 6944 " />
<path d="M4570 6610 L4572 6611C4573 6611,4593 6619,4615 6627 C4642 6638,4691 6643,4770 6644 C4864 6644,4898 6640,4959 6621 C5000 6608,5055 6587,5082 6574 L5130 6550L5130 6550 L5130 6555C5130 6557,5134 6560,5140 6560 C5145 6560,5150 6557,5150 6555 L5150 6550L5140 6550 L5140 6545C5140 6542,5142 6540,5145 6540 L5150 6540L5150 6550 L5157 6550C5161 6550,5187 6543,5215 6533 C5242 6524,5276 6509,5290 6499 C5303 6490,5340 6466,5372 6445 C5403 6425,5458 6381,5494 6347 C5530 6314,5596 6242,5640 6187 C5684 6132,5720 6083,5720 6078 L5720 6070L5720 6070 L5745 6120L5770 6170L5770 6170 L5760 6175C5755 6177,5725 6219,5693 6267 C5659 6318,5588 6402,5520 6470 C5456 6534,5378 6604,5345 6626 C5312 6649,5260 6679,5230 6694 C5200 6710,5151 6731,5121 6741 C5091 6751,5027 6764,4978 6771 C4913 6779,4871 6779,4813 6771 C4771 6764,4718 6751,4695 6741 C4672 6731,4631 6701,4605 6675 C4579 6650,4560 6626,4563 6622 C4567 6619,4570 6615,4570 6613 L4570 6610" />
<path d="M7210 6417 C7107 6306,7065 6202,7066 6055 C7067 5943,7087 5862,7145 5742 C7186 5657,7192 5650,7227 5640 C7314 5617,7358 5610,7408 5610 L7462 5610 7423 5652 C7366 5713,7302 5811,7264 5893 C7182 6071,7171 6245,7234 6392 C7243 6413,7249 6432,7249 6436 C7248 6439,7253 6446,7259 6451 C7265 6456,7267 6462,7265 6465 C7262 6467,7237 6446,7210 6417 " />
<path d="M2197 6454 C2174 6452,2140 6447,2123 6444 L2091 6439 2140 6374 C2261 6214,2359 5925,2458 5440 C2501 5229,2566 4882,2684 4230 C2725 4001,2762 3800,2765 3782 L2772 3750 2973 3749 C3310 3749,3450 3728,3563 3659 C3589 3643,3608 3634,3605 3638 C3602 3643,3646 3653,3702 3659 C3833 3674,3836 3675,3818 3696 C3783 3738,3661 3811,3585 3836 C3509 3860,3488 3862,3206 3870 C3042 3875,2905 3881,2903 3883 C2900 3886,2836 4231,2759 4651 C2683 5071,2607 5482,2589 5565 C2509 5950,2435 6197,2354 6348 C2294 6460,2286 6465,2197 6454 " />
<path d="M5390 5400 L5277 5405C5215 5408,5132 5412,5092 5416 L5020 5421 4969 5553 C4941 5625,4902 5739,4883 5805 C4864 5871,4839 5979,4828 6045 C4812 6139,4808 6191,4812 6290 C4815 6358,4818 6416,4819 6417 L4820 6420L4820 6421 4825 6425 L4830 6430 L4827 6429C4826 6429,4811 6423,4794 6415 C4777 6408,4751 6388,4737 6370 C4722 6353,4704 6320,4697 6297 C4689 6271,4685 6199,4685 6110 C4685 5997,4690 5940,4708 5856 C4721 5796,4749 5691,4771 5621 C4794 5551,4829 5449,4851 5393 L4890 5292 4997 5286 C5056 5283,5156 5277,5220 5274 L5335 5268 5363 5326 C5378 5358,5390 5388,5390 5392 L5390 5400" />
<path d="M5810 5930 L5813 5922C5815 5918,5822 5904,5829 5892 C5835 5880,5844 5870,5849 5870 C5853 5870,5867 5878,5880 5888 L5902 5906 5876 5955 C5861 5982,5850 6006,5850 6007 L5850 6010L5850 6010 L5845 6010C5842 6010,5833 5996,5825 5980 C5816 5964,5810 5946,5810 5940 L5810 5930" />
<path d="M8287 5661 C8231 5620,8012 5494,7855 5411 C7720 5340,7574 5242,7505 5176 C7472 5145,7450 5120,7457 5120 C7463 5120,7471 5123,7473 5128 C7476 5132,7516 5158,7562 5185 C7607 5212,7646 5237,7648 5242 C7650 5246,7655 5250,7659 5250 C7664 5250,7696 5266,7731 5286 C7766 5305,7833 5342,7880 5367 C7926 5392,7966 5416,7968 5421 C7970 5426,7977 5430,7983 5430 C7999 5430,8173 5538,8178 5551 C8180 5555,8187 5560,8194 5560 C8202 5560,8240 5591,8279 5630 C8318 5668,8347 5700,8345 5700 C8342 5700,8316 5682,8287 5661 " />
<path d="M10 5480 L15 5507C18 5522,20 5538,20 5542 L20 5550L20 5550 L14 5522C11 5507,9 5491,9 5487 L10 5480" />
<path d="M10230 5430 L10230 5437C10230 5441,10228 5459,10225 5477 L10220 5510L10220 5510 L10225 5470L10230 5430" />
<path d="M0 5290 L5 5293C7 5295,10 5299,10 5303 C10 5307,10 5330,10 5355 L10 5400L10 5400 L4 5352C1 5326,0 5301,0 5297 L0 5290" />
<path d="M5730 5200 L5735 5200C5737 5200,5740 5209,5740 5220 C5740 5239,5743 5240,5800 5234 L5860 5227 5860 5297 L5860 5367 5707 5379 C5623 5385,5551 5390,5547 5390 L5540 5390L5540 5390 L5539 5387C5539 5386,5525 5358,5508 5326 C5492 5294,5481 5265,5483 5262 C5486 5259,5543 5252,5609 5246 C5715 5237,5730 5233,5730 5218 L5730 5200" />
<path d="M10230 5130 L10235 5130C10237 5130,10240 5177,10240 5235 C10240 5292,10237 5340,10235 5340 L10230 5340L10230 5340 L10230 5295C10230 5270,10230 5247,10230 5245 C10230 5242,10230 5215,10230 5185 L10230 5130" />
<path d="M5225 5045 L5221 5038 L5220 5040 L5195 5072C5182 5090,5170 5106,5170 5107 C5170 5108,5170 5112,5170 5115 L5170 5120L5170 5120 L5162 5119C5158 5119,5112 5122,5061 5126 L4968 5133 4995 5079 C5010 5049,5045 4982,5072 4931 L5123 4837 5176 4941 C5205 4998,5229 5046,5229 5047 L5230 5050" />
<path d="M8602 4931 C8558 4909,8525 4875,8510 4837 C8501 4811,8501 4810,8519 4819 C8535 4828,8543 4822,8575 4772 C8622 4697,8728 4479,8774 4362 C8875 4102,8901 3859,8845 3701 L8830 3659 8859 3679 C9028 3800,9050 4086,8917 4450 C8876 4562,8802 4725,8745 4827 C8720 4873,8695 4919,8690 4930 C8677 4954,8650 4955,8602 4931 " />
<path d="M0 4920 L0 4905C0 4896,0 4886,0 4882 C0 4878,1 4862,4 4847 L10 4820L10 4820 L10 4827C10 4831,8 4854,5 4877 L0 4920" />
<path d="M5510 4100 L5535 4100C5550 4100,5574 4108,5589 4119 C5604 4130,5622 4153,5629 4169 C5637 4188,5639 4216,5635 4244 C5631 4268,5607 4333,5580 4386 C5554 4440,5481 4572,5420 4680 C5358 4787,5306 4878,5303 4882 L5300 4890L5300 4890 L5297 4889C5296 4889,5275 4847,5252 4797 C5228 4746,5209 4701,5209 4696 C5209 4692,5238 4640,5273 4581 C5308 4523,5364 4424,5398 4362 C5433 4300,5472 4220,5485 4184 C5499 4148,5510 4115,5510 4109 L5510 4100" />
<path d="M7584 4752 C7527 4693,7496 4640,7474 4565 C7394 4288,7698 3827,8061 3673 C8209 3611,8436 3591,8517 3633 C8554 3652,8590 3695,8590 3721 C8590 3737,8581 3740,8512 3740 C8276 3741,8069 3832,7882 4018 C7708 4190,7590 4424,7590 4594 C7590 4647,7613 4754,7630 4776 C7635 4784,7637 4792,7635 4795 C7632 4797,7609 4778,7584 4752 " />
<path d="M1705 3954 C1708 3940,1722 3902,1737 3870 C1764 3813,1765 3812,1815 3805 C2061 3773,2210 3759,2370 3753 L2557 3746 2536 3822 C2524 3864,2512 3894,2509 3889 C2495 3866,1987 3922,1725 3975 C1702 3979,1700 3977,1705 3954 " />
<path d="M5300 0 L5307 0C5311 0,5338 1,5367 4 L5420 10L5420 10 L5375 10C5350 10,5326 10,5322 10 C5318 10,5311 7,5307 5 L5300 0" />
</g>

</svg>